# xmcd
#
# Track frame offsets: 
#        151
#        13642
#        29009
#        43112
#        55501
#        67646
#        79811
#        91990
#        104693
#        117080
#
# Disc length: 1747 seconds
#
# Revision: 0
# Processed by: cddbd v1.5.1PL0 Copyright (c) Steve Scherf et al.
# Submitted via: ExactAudioCopy v0.95b1
#
DISCID=7706d10a
DTITLE=Moe Bandy - The Best Of
DYEAR=2002
DGENRE=Country
TTITLE0=Following The Feeling
TTITLE1=Hank Williams, You Wrote My Life
TTITLE2=I Cheated Me Right Out Of You
TTITLE3=It's A Cheating Situation
TTITLE4=She's Not Really Cheatin' (She's Just Getting Even)
TTITLE5=Let's Get Over Them Together
TTITLE6=It Was Always So Easy (To Find An Unhappy Woman)
TTITLE7=Two Lonely People
TTITLE8=Just Good Ol' Boys
TTITLE9=Till I'm Too Old To Die Young
EXTD=
EXTT0=
EXTT1=
EXTT2=
EXTT3=
EXTT4=
EXTT5=
EXTT6=
EXTT7=
EXTT8=
EXTT9=
PLAYORDER=
